<?xml version="1.0"?>
<svg xmlns="http://www.w3.org/2000/svg" xmlns:xlink="http://www.w3.org/1999/xlink" version="1.1" id="Layer_1" x="0px" y="0px" viewBox="0 0 509.287 509.287" style="enable-background:new 0 0 509.287 509.287;" xml:space="preserve" width="512px" height="512px" class=""><g><circle style="fill:#FBD303;" cx="254.644" cy="254.644" r="254.644" data-original="#FBD303" class=""/><path style="fill:#FCFCFD;" d="M254.644,367.555c96.636,0,182.76-43.74,239.724-112.911  c-56.964-68.832-143.089-112.911-239.724-112.911S71.883,185.812,14.919,254.644C71.883,323.475,158.008,367.555,254.644,367.555z" data-original="#FCFCFD"/><circle style="fill:#4B87BC" cx="254.644" cy="254.644" r="106.13" data-original="#6EB1E1" class="" data-old_color="#4b87bc"/><circle style="fill:#16233A" cx="254.644" cy="254.644" r="64.085" data-original="#646B79" class="active-path" data-old_color="#16233a"/><g>
	<circle style="fill:#FCFCFD;" cx="254.644" cy="228.196" r="24.413" data-original="#FCFCFD"/>
	<path style="fill:#FCFCFD;" d="M254.644,318.728c20.344,0,38.654-9.494,50.183-24.413c-6.781-21.362-26.787-36.959-50.183-36.959   s-43.74,15.597-50.183,36.959C215.989,309.234,234.299,318.728,254.644,318.728z" data-original="#FCFCFD"/>
</g></g> </svg>
