<?xml version="1.0" encoding="iso-8859-1"?>
<!-- Generator: Adobe Illustrator 19.0.0, SVG Export Plug-In . SVG Version: 6.00 Build 0)  -->
<svg xmlns="http://www.w3.org/2000/svg" xmlns:xlink="http://www.w3.org/1999/xlink" version="1.1" id="Layer_1" x="0px" y="0px" viewBox="0 0 511.993 511.993" style="enable-background:new 0 0 511.993 511.993;" xml:space="preserve" width="512" height="512">
<g>
	<g>
		<path style="fill:#FDE475;" d="M383.44,102.152c-2.345-3.53-7.81-2.362-8.471,1.824c-2.15,13.627-8.023,36.316-24.054,57.266    c-2.705,3.536-8.337,1.848-8.586-2.597c-1.746-31.211-13.343-113.66-85.941-150.626c-3.304-1.682-7.148,0.932-6.765,4.619    c2.222,21.367,3.705,78.837-37.925,114.709c-2.068,1.782-5.213,1.421-6.882-0.739c-7.407-9.583-24.947-36.176-19.707-67.442    c0.677-4.042-3.897-6.89-7.249-4.532c-15.288,10.754-46.804,38.889-83.204,105.401l-0.002-0.001    C-4.71,356.421,81.991,504.497,255.996,504.497C446.727,504.497,532.563,326.587,383.44,102.152z"/>
		<g>
			<path style="fill:#FDB058;" d="M134.655,160.033l0.002,0.001c18.77-34.297,36.233-58.37,50.85-75.137     c-1.512-7.984-1.917-16.659-0.396-25.732c0.677-4.042-3.897-6.89-7.249-4.532c-15.288,10.754-46.804,38.889-83.204,105.401     l-0.002-0.001C-4.71,356.421,81.991,504.497,255.996,504.497c6.784,0,13.431-0.233,19.944-0.677     C115.479,492.812,39.186,348.722,134.655,160.033z"/>
		</g>
		<path style="fill:#FD5C6F;" d="M271.054,183.35c-0.691-5.369-6.38-8.54-11.239-6.153c-28.688,14.09-102.632,59.875-104.12,158.031    c-0.86,56.687,44.648,103.907,101.339,103.33c54.925-0.559,99.277-45.257,99.277-100.314    C356.31,261.153,277.096,230.293,271.054,183.35z"/>
	</g>
	<g>
		<path d="M389.701,97.998c-6.009-9.042-20.437-5.899-22.126,4.805c-1.978,12.531-6.769,30.45-18.299,47.84    c-1.473-16.352-5.499-41.969-16.415-68.052c-15.548-37.153-40.127-64.493-73.056-81.26c-3.985-2.029-8.748-1.721-12.427,0.806    c-3.669,2.52-5.662,6.84-5.201,11.272c6.34,60.973-19.466,93.562-33.156,106.277c-7.607-10.504-20.868-33.225-16.501-59.284    c1.748-10.429-10.35-17.964-18.961-11.908c-14.666,10.316-44.408,36.521-78.819,96.109c-2.072,3.587-0.843,8.174,2.744,10.246    c3.585,2.07,8.174,0.843,10.245-2.744c29.156-50.489,54.294-75.6,69.164-87.377c-2.408,30.99,14.294,56.487,22.001,66.46    c4.242,5.49,12.444,6.376,17.714,1.835c19.221-16.563,31.955-39.079,37.848-66.922c4.118-19.455,3.924-37.552,3.104-48.949    c24.715,14.003,72.287,52.401,77.294,141.906c0.625,11.181,15.246,15.603,22.031,6.737c14.251-18.625,21.01-38.418,24.203-53.583    c36.81,56.758,59.52,111.881,67.533,163.945c7.543,49.007,1.299,93.992-18.056,130.09c-15.263,28.467-37.961,50.835-67.463,66.483    c-30.354,16.1-66.385,24.263-107.092,24.263c-75.438,0-135.184-28.405-168.232-79.982c-18.564-28.972-27.818-63.626-27.507-103    c0.332-41.895,11.546-87.153,33.332-134.519c1.731-3.763,0.083-8.217-3.68-9.947c-3.766-1.732-8.217-0.083-9.948,3.68    c-22.679,49.307-34.355,96.635-34.704,140.668c-0.335,42.332,9.717,79.749,29.876,111.211    c35.902,56.032,100.134,86.89,180.862,86.89c43.184,0,81.579-8.751,114.121-26.011c32.179-17.067,56.96-41.509,73.655-72.646    c20.904-38.988,27.703-87.212,19.662-139.46C454.822,217.84,430.011,158.666,389.701,97.998z"/>
		<path d="M339.556,394.288c3.601,2.047,8.179,0.789,10.227-2.812c9.186-16.15,14.041-34.559,14.041-53.235    c0-47.646-27.737-77.977-52.208-104.737c-16.568-18.116-30.875-33.763-33.11-51.113c-1.322-10.268-12.629-16.524-21.984-11.928    c-14.092,6.921-41.222,22.527-64.602,49.288c-28.336,32.434-43.042,71.247-43.711,115.361    c-0.454,29.932,10.905,58.083,31.985,79.268c20.355,20.457,47.24,31.682,75.817,31.681c0.369,0,0.742-0.002,1.112-0.006    c27.047-0.276,52.819-10.615,72.568-29.113c3.023-2.832,3.179-7.578,0.347-10.601c-2.833-3.024-7.579-3.178-10.601-0.347    c-17.001,15.924-39.186,24.824-62.467,25.062c-24.938,0.247-48.402-9.426-66.144-27.256c-18.203-18.294-28.011-42.607-27.62-68.46    c1.411-93.056,70.353-136.887,99.929-151.414c0.074-0.037,0.128-0.063,0.252,0.004c0.207,0.111,0.232,0.304,0.241,0.375    c2.839,22.057,19.392,40.158,36.917,59.322c22.629,24.746,48.278,52.793,48.278,94.614c0,16.082-4.177,31.926-12.079,45.819    C334.697,387.661,335.956,392.24,339.556,394.288z"/>
		<path d="M192.859,323.328V333.4c0,4.142,3.358,7.5,7.5,7.5s7.5-3.358,7.5-7.5v-10.072c0-4.142-3.358-7.5-7.5-7.5    S192.859,319.186,192.859,323.328z"/>
		<path d="M304.161,323.328V333.4c0,4.142,3.358,7.5,7.5,7.5s7.5-3.358,7.5-7.5v-10.072c0-4.142-3.358-7.5-7.5-7.5    S304.161,319.186,304.161,323.328z"/>
		<path d="M264.098,327.763c-1.951,2.232-4.899,3.513-8.088,3.513s-6.137-1.28-8.089-3.513c-2.726-3.119-7.464-3.437-10.583-0.711    c-3.119,2.726-3.437,7.464-0.71,10.583c4.8,5.491,11.865,8.641,19.382,8.641c7.518,0,14.582-3.149,19.382-8.641    c2.726-3.119,2.408-7.857-0.711-10.583C271.563,324.326,266.824,324.644,264.098,327.763z"/>
	</g>
</g>















</svg>
