<svg height="480pt" viewBox="0 -12 480 480" width="480pt" xmlns="http://www.w3.org/2000/svg"><path d="m156 344h-8.878906l-6.480469-24h15.359375c6.628906 0 12 5.371094 12 12s-5.371094 12-12 12zm0 0" fill="#006df0"/><path d="m140.640625 320 6.480469 24 17.039062 63.679688c3.527344 11.21875.617188 23.464843-7.574218 31.898437-8.195313 8.433594-20.355469 11.695313-31.667969 8.492187-11.3125-3.203124-19.960938-12.351562-22.519531-23.832031l-36.558594-136.238281h66.238281zm0 0" fill="#898890"/><path d="m16 120h16c4.417969 0 8 3.582031 8 8v64c0 4.417969-3.582031 8-8 8h-16c-4.417969 0-8-3.582031-8-8v-64c0-4.417969 3.582031-8 8-8zm0 0" fill="#898890"/><path d="m152 112v160c.015625.429688-.011719.855469-.078125 1.28125-.667969 8.300781-7.59375 14.703125-15.921875 14.71875h-80c-8.824219-.027344-15.972656-7.175781-16-16v-160c.027344-8.824219 7.175781-15.972656 16-16h24v96h32v-96h24c8.328125.015625 15.253906 6.417969 15.921875 14.71875.066406.425781.09375.851562.078125 1.28125zm0 0" fill="#ffda44"/><path d="m80 96h32v96h-32zm0 0" fill="#006df0"/><path d="m472 8v368h-24c-4.417969 0-8-3.582031-8-8v-352c0-4.417969 3.582031-8 8-8zm0 0" fill="#006df0"/><path d="m440 29.28125v325.4375c-38.480469-24.78125-80.210938-44.113281-124-57.4375-64.320312-20.640625-124.480469-28.640625-164-24h-.078125c.066406-.425781.09375-.851562.078125-1.28125v-160c.015625-.429688-.011719-.855469-.078125-1.28125h.078125c39.519531 4.640625 99.679688-3.359375 164-24 43.789062-13.324219 85.519531-32.65625 124-57.4375zm0 0" fill="#d80027"/><path d="m472 0h-24c-8.835938 0-16 7.164062-16 16v8.902344c-36.917969 23.195312-76.726562 41.429687-118.398438 54.234375-58.121093 18.597656-115.53125 27.472656-155.265624 24.160156-3.585938-9.210937-12.449219-15.285156-22.335938-15.296875h-80c-13.253906 0-24 10.746094-24 24h-16c-8.835938 0-16 7.164062-16 16v64c0 8.835938 7.164062 16 16 16h16v64c0 13.253906 10.746094 24 24 24h3.710938l34.960937 130.304688c4.640625 17.472656 20.433594 29.648437 38.511719 29.695312 12.449218 0 24.191406-5.789062 31.769531-15.664062 7.582031-9.871094 10.140625-22.710938 6.925781-34.734376l-14.398437-53.761718c10.652343-.851563 18.742187-9.949219 18.34375-20.628906-.394531-10.679688-9.136719-19.152344-19.824219-19.210938h-9.207031l-4.535157-16.929688c7.324219-1.988281 13.277344-7.332031 16.046876-14.398437 39.75-3.296875 97.144531 5.601563 155.261718 24.160156 41.6875 12.8125 81.507813 31.058594 118.433594 54.265625v8.902344c0 8.835938 7.164062 16 16 16h24c4.417969 0 8-3.582031 8-8v-368c0-4.417969-3.582031-8-8-8zm-368 104v80h-16v-80zm-88 88v-64h16v64zm123.464844 247.199219c-6.144532 1.652343-12.695313.789062-18.199219-2.402344-5.503906-3.1875-9.511719-8.4375-11.136719-14.589844l-33.855468-126.207031h49.671874l30.488282 113.742188c3.4375 12.820312-4.15625 26-16.96875 29.457031zm16.535156-111.199219c2.210938 0 4 1.789062 4 4s-1.789062 4-4 4h-2.777344l-2.144531-8zm-12-56c0 4.417969-3.582031 8-8 8h-80c-4.417969 0-8-3.582031-8-8v-160c0-4.417969 3.582031-8 8-8h16v88c0 4.417969 3.582031 8 8 8h32c4.417969 0 8-3.582031 8-8v-88h16c4.417969 0 8 3.582031 8 8zm174.449219 17.601562c-58.539063-18.707031-116.847657-27.859374-158.449219-25.082031v-145.085937c4.910156.328125 9.976562.550781 15.335938.550781 48.703124-1.453125 96.925781-10.078125 143.113281-25.601563 39.6875-12.328124 77.796875-29.257812 113.550781-50.445312v296.125c-35.753906-21.191406-73.863281-38.128906-113.550781-50.460938zm145.550781 78.398438h-16v-352h16zm0 0"/><path d="m176 184h16v16h-16zm0 0"/><path d="m200 184h96v16h-96zm0 0"/><path d="m176 144h16v16h-16zm0 0"/><path d="m200 144h96v16h-96zm0 0"/><path d="m176 224h16v16h-16zm0 0"/><path d="m200 224h96v16h-96zm0 0"/><path d="m120 256h16v16h-16zm0 0"/><path d="m96 256h16v16h-16zm0 0"/><path d="m120 232h16v16h-16zm0 0"/></svg>