<?xml version="1.0"?>
<svg xmlns="http://www.w3.org/2000/svg" viewBox="0 0 64 64" width="512" height="512"><g id="Filled_outline" data-name="Filled outline"><rect x="3" y="21" width="58" height="40" style="fill:#ebb562"/><path d="M47,51s-12,2-20,2S7,51,7,51V27a116.928,116.928,0,0,1,20-2,116.928,116.928,0,0,1,20,2Z" style="fill:#f4f4e6"/><circle cx="54" cy="28" r="3" style="fill:#e97424"/><circle cx="54" cy="38" r="3" style="fill:#e97424"/><rect x="51" y="45" width="6" height="8" style="fill:#e97424"/><rect x="3" y="57" width="58" height="4" style="fill:#b5554e"/><rect x="34.929" y="31" width="14.142" height="2" transform="translate(-10.326 39.071) rotate(-45)" style="fill:#7d8d9c"/><rect x="33.964" y="27.5" width="7.071" height="2" transform="translate(-9.169 34.864) rotate(-45)" style="fill:#7d8d9c"/><rect x="4.722" y="44.5" width="15.556" height="2" transform="translate(-28.512 22.165) rotate(-45)" style="fill:#7d8d9c"/><rect x="11.55" y="47.5" width="9.899" height="2" transform="translate(-29.462 25.873) rotate(-45)" style="fill:#7d8d9c"/><rect x="19.586" y="36" width="2.828" height="2" transform="translate(-20.012 25.686) rotate(-45)" style="fill:#7d8d9c"/><path d="M32,18a1,1,0,0,1-.707-.293l-14-14,1.414-1.414L32,15.586,45.293,2.293l1.414,1.414-14,14A1,1,0,0,1,32,18Z" style="fill:#7d8d9c"/><rect x="17" y="17" width="30" height="4" style="fill:#b5554e"/><path d="M27,24A118.924,118.924,0,0,0,6.8,26.02l-.8.16V51.847l.835.139C7.329,52.069,19.009,54,27,54s19.671-1.931,20.165-2.014L48,51.847V26.18l-.8-.16A118.924,118.924,0,0,0,27,24ZM46,50.147A147.035,147.035,0,0,1,27,52a106.8,106.8,0,0,1-11.73-.856l5.437-5.437-1.414-1.414-6.536,6.536c-1.447-.191-2.7-.371-3.658-.514l9.608-9.608-1.414-1.414L8,48.586V27.83A116.179,116.179,0,0,1,27,26a100.3,100.3,0,0,1,10.921.665l-3.628,3.628,1.414,1.414,4.735-4.735c1.842.243,3.391.486,4.5.674l-8.647,8.647,1.414,1.414L46,29.414Z"/><path d="M54,32a4,4,0,1,0-4-4A4,4,0,0,0,54,32Zm0-6a2,2,0,1,1-2,2A2,2,0,0,1,54,26Z"/><path d="M54,42a4,4,0,1,0-4-4A4,4,0,0,0,54,42Zm0-6a2,2,0,1,1-2,2A2,2,0,0,1,54,36Z"/><path d="M58,44H50V54h8Zm-2,8H52V46h4Z"/><rect x="19.586" y="36" width="2.828" height="2" transform="translate(-20.012 25.686) rotate(-45)"/><path d="M48,16H34.414L46.707,3.707,45.293,2.293,32,15.586,18.707,2.293,17.293,3.707,29.586,16H16v4H2V62H62V20H48ZM18,18H46v2H18ZM60,60H4V58H60Zm0-38V56H4V22Z"/></g></svg>
