<svg viewBox="1 1 511.99998 511.99998" xmlns="http://www.w3.org/2000/svg"><path d="m512 256c0 22.234375-2.832031 43.800781-8.171875 64.375-4.910156 19.019531-11.972656 37.167969-20.898437 54.199219-8.316407 15.902343-18.261719 30.824219-29.609376 44.535156-6.0625 7.324219-12.519531 14.304687-19.34375 20.898437-17.742187 17.175782-37.96875 31.796876-60.089843 43.289063-35.289063 18.335937-75.371094 28.703125-117.886719 28.703125s-82.597656-10.367188-117.886719-28.703125c-22.121093-11.492187-42.347656-26.113281-60.089843-43.289063-6.824219-6.59375-13.28125-13.574218-19.34375-20.898437-11.347657-13.710937-21.292969-28.632813-29.609376-44.535156-8.925781-17.03125-15.988281-35.179688-20.898437-54.199219-5.339844-20.574219-8.171875-42.140625-8.171875-64.375 0-22.246094 2.84375-43.824219 8.171875-64.40625 4.921875-19.007812 11.984375-37.167969 20.898437-54.191406 9.015626-17.230469 19.945313-33.300782 32.503907-47.9375 6.28125-7.335938 12.980469-14.316406 20.0625-20.898438 45.703125-42.546875 106.988281-68.566406 174.363281-68.566406s128.660156 26.019531 174.363281 68.566406c7.082031 6.582032 13.78125 13.5625 20.0625 20.898438 12.558594 14.636718 23.488281 30.707031 32.503907 47.9375 8.914062 17.023437 15.976562 35.183594 20.898437 54.191406 5.328125 20.582031 8.171875 42.160156 8.171875 64.40625zm0 0" fill="#ff7591"/><path d="m232.492188 430.609375h47.015624v61.121094h-47.015624zm0 0" fill="#3b3b3b"/><path d="m503.828125 86.699219v233.675781c-4.910156 19.019531-11.972656 37.167969-20.898437 54.199219-8.316407 15.902343-18.261719 30.824219-29.609376 44.535156-6.0625 7.324219-12.519531 14.304687-19.34375 20.898437h-355.953124c-6.824219-6.59375-13.28125-13.574218-19.34375-20.898437-11.347657-13.710937-21.292969-28.632813-29.609376-44.535156-8.925781-17.03125-15.988281-35.179688-20.898437-54.199219v-233.675781c0-10.015625 8.117187-18.132813 18.128906-18.132813h459.398438c10.011719 0 18.128906 8.117188 18.128906 18.132813zm0 0" fill="#4a4a4a"/><path d="m482.929688 89.464844v285.109375c-8.316407 15.902343-18.261719 30.824219-29.609376 44.535156h-394.640624c-11.347657-13.710937-21.292969-28.632813-29.609376-44.535156v-285.109375zm0 0" fill="#fff"/><path d="m373.886719 483.296875c-35.289063 18.335937-75.371094 28.703125-117.886719 28.703125s-82.597656-10.367188-117.886719-28.703125c28.453125-5.390625 70.71875-8.808594 117.886719-8.808594 47.175781 0 89.433594 3.417969 117.886719 8.808594zm0 0" fill="#4a4a4a"/><path d="m482.929688 89.464844v285.109375c-8.316407 15.902343-18.261719 30.824219-29.609376 44.535156h-316.3125l293.082032-329.644531zm0 0" fill="#efefef"/><path d="m225.59375 177.90625h-92.652344c-6.132812 0-8.976562 6.558594-8.976562 12.695312 0 7.007813 3.28125 12.921876 8.976562 12.921876h32.203125v125.503906c0 5.914062 7.003907 8.976562 14.234375 8.976562 7.011719 0 14.230469-3.0625 14.230469-8.976562v-125.503906h31.984375c5.695312 0 8.976562-6.132813 8.976562-12.921876 0-6.136718-2.84375-12.695312-8.976562-12.695312zm0 0" fill="#7eeef6"/><path d="m367.074219 177.90625c-4.820313 0-8.539063 1.523438-9.636719 5.691406l-33.289062 118.703125-20.074219-71.105469-13.4375-47.597656c-1.09375-4.167968-4.816407-5.691406-9.632813-5.691406-7.667968 0-17.960937 4.816406-17.960937 11.816406 0 .4375.21875 1.316406.4375 2.195313l19.375 63.152343 22.890625 74.617188c2.195312 6.5625 10.074218 9.632812 18.402344 9.632812 8.328124 0 16.425781-3.070312 18.402343-9.632812l42.042969-137.769531c.222656-.878907.441406-1.539063.441406-2.195313 0-6.78125-10.292968-11.816406-17.960937-11.816406zm0 0" fill="#7eeef6"/><path d="m385.035156 189.722656c0 .65625-.21875 1.316406-.441406 2.195313l-42.042969 137.769531c-1.976562 6.5625-10.074219 9.632812-18.402343 9.632812-8.328126 0-16.207032-3.070312-18.402344-9.632812l-22.890625-74.617188 21.21875-23.875 20.074219 71.105469 33.289062-118.703125c1.097656-4.167968 4.816406-5.691406 9.636719-5.691406 7.667969 0 17.960937 5.035156 17.960937 11.816406zm0 0" fill="#1acece"/></svg>
