<?xml version="1.0" standalone="no"?>
<!DOCTYPE svg PUBLIC "-//W3C//DTD SVG 20010904//EN"
 "http://www.w3.org/TR/2001/REC-SVG-20010904/DTD/svg10.dtd">
<svg version="1.0" xmlns="http://www.w3.org/2000/svg"
 width="282.000000pt" height="82.000000pt" viewBox="0 0 282.000000 82.000000"
 preserveAspectRatio="xMidYMid meet">
<metadata>
Created by potrace 1.15, written by Peter Selinger 2001-2017
</metadata>
<g transform="translate(0.000000,82.000000) scale(0.100000,-0.100000)"
fill="#000000" stroke="none">
<path d="M32 768 c-17 -17 -17 -699 0 -716 17 -17 2739 -17 2756 0 17 17 17
699 0 716 -17 17 -2739 17 -2756 0z m2746 -6 c9 -7 12 -85 10 -358 l-3 -349
-1375 0 -1375 0 -3 344 c-2 245 1 348 9 357 10 12 232 14 1368 14 746 0 1362
-4 1369 -8z"/>
<path d="M137 643 c-13 -12 -8 -458 5 -471 19 -19 452 -17 467 2 7 9 11 42 9
88 -3 65 -5 73 -23 73 -17 0 -21 -8 -25 -55 l-5 -55 -190 0 -190 0 0 185 0
185 52 3 c51 3 81 21 68 42 -7 11 -157 14 -168 3z"/>
<path d="M372 532 l-123 -117 1 -62 0 -63 69 0 68 0 109 110 c60 61 113 118
117 126 7 12 -4 30 -44 70 -29 30 -58 54 -64 54 -5 0 -65 -53 -133 -118z m178
4 c0 -6 -42 -52 -92 -103 -72 -73 -99 -93 -120 -93 -25 0 -28 4 -28 33 0 28
13 44 97 123 l98 92 23 -21 c12 -11 22 -25 22 -31z"/>
</g>
</svg>
