<?xml version="1.0"?>
<svg xmlns="http://www.w3.org/2000/svg" height="512px" viewBox="0 -46 512 512" width="512px"><path d="m361 96.8125v-81.8125c0-8.285156-6.714844-15-15-15h-331c-8.285156 0-15 6.714844-15 15v210c0 8.285156 6.714844 14.988281 15 14.988281h76.871094c-.566406 4.984375-.871094 10-.871094 15.011719 0 30.070312 10.25 59.273438 29.703125 84.8125-1.695313 20.625-10.570313 39.839844-25.308594 54.582031-4.289062 4.289063-5.574219 10.742188-3.253906 16.347657 2.324219 5.601562 7.792969 9.257812 13.859375 9.257812h30c21.339844 0 41.160156-8.859375 55.226562-24.21875 32.953126 15.878906 70.621094 24.21875 109.773438 24.21875 116.347656 0 211-74.019531 211-165 0-80.183594-70.5625-139.410156-151-158.1875zm-331-66.8125h301v180h-45c-8.285156 0-15 6.714844-15 15v17.574219c0 18.519531 4.257812 36.382812 12.3125 52.476562-59.304688-18.4375-72.371094-73.644531-73.082031-74.796875-2.042969-6.125-7.773438-10.253906-14.230469-10.253906h-166zm271 360c-38.722656 0-75.636719-9.136719-106.757812-26.425781-6.984376-3.878907-15.789063-1.601563-20.011719 5.179687-8.285157 13.292969-22.558594 21.234375-38.191407 21.246094 9.304688-16.570312 14.480469-35.269531 14.929688-54.710938.082031-3.585937-1.121094-7.085937-3.398438-9.859374-17.382812-21.1875-26.570312-45.539063-26.570312-70.429688 0-5.015625.386719-10.03125 1.121094-15h63.203125c20.601562 54.078125 72.378906 90 130.675781 90 6.066406 0 11.535156-3.65625 13.859375-9.261719 2.320313-5.601562 1.035156-12.054687-3.253906-16.34375-16.511719-16.511719-25.605469-38.46875-25.605469-61.820312v-2.574219h45c8.285156 0 15-6.714844 15-15v-97.269531c71.089844 18.957031 121 70.4375 121 127.269531 0 81.960938-92.800781 135-181 135zm0 0" fill="#4b87bc"/><path d="m91 90c-16.542969 0-30 13.457031-30 30s13.457031 30 30 30 30-13.457031 30-30-13.457031-30-30-30zm0 0" fill="#4b87bc"/><path d="m211 120c0-16.542969-13.457031-30-30-30s-30 13.457031-30 30 13.457031 30 30 30 30-13.457031 30-30zm0 0" fill="#4b87bc"/><path d="m271 150c16.542969 0 30-13.457031 30-30s-13.457031-30-30-30-30 13.457031-30 30 13.457031 30 30 30zm0 0" fill="#4b87bc"/></svg>
